<svg id="visual" viewBox="0 0 1000 225" width="1000" height="225" xmlns="http://www.w3.org/2000/svg" xmlns:xlink="http://www.w3.org/1999/xlink" version="1.1"><path d="M0 37L56 37L56 30L111 30L111 39L167 39L167 19L222 19L222 26L278 26L278 10L333 10L333 55L389 55L389 12L444 12L444 21L500 21L500 35L556 35L556 24L611 24L611 48L667 48L667 37L722 37L722 21L778 21L778 17L833 17L833 15L889 15L889 28L944 28L944 24L1000 24L1000 42L1000 0L1000 0L944 0L944 0L889 0L889 0L833 0L833 0L778 0L778 0L722 0L722 0L667 0L667 0L611 0L611 0L556 0L556 0L500 0L500 0L444 0L444 0L389 0L389 0L333 0L333 0L278 0L278 0L222 0L222 0L167 0L167 0L111 0L111 0L56 0L56 0L0 0Z" fill="#515575"></path><path d="M0 64L56 64L56 37L111 37L111 60L167 60L167 28L222 28L222 57L278 57L278 30L333 30L333 71L389 71L389 42L444 42L444 28L500 28L500 64L556 64L556 30L611 30L611 78L667 78L667 55L722 55L722 53L778 53L778 42L833 42L833 39L889 39L889 48L944 48L944 48L1000 48L1000 71L1000 40L1000 22L944 22L944 26L889 26L889 13L833 13L833 15L778 15L778 19L722 19L722 35L667 35L667 46L611 46L611 22L556 22L556 33L500 33L500 19L444 19L444 10L389 10L389 53L333 53L333 8L278 8L278 24L222 24L222 17L167 17L167 37L111 37L111 28L56 28L56 35L0 35Z" fill="#7e5c89"></path><path d="M0 105L56 105L56 60L111 60L111 125L167 125L167 102L222 102L222 78L278 78L278 66L333 66L333 105L389 105L389 116L444 116L444 80L500 80L500 109L556 109L556 96L611 96L611 114L667 114L667 129L722 129L722 78L778 78L778 87L833 87L833 80L889 80L889 120L944 120L944 78L1000 78L1000 96L1000 69L1000 46L944 46L944 46L889 46L889 37L833 37L833 40L778 40L778 51L722 51L722 53L667 53L667 76L611 76L611 28L556 28L556 62L500 62L500 26L444 26L444 40L389 40L389 69L333 69L333 28L278 28L278 55L222 55L222 26L167 26L167 58L111 58L111 35L56 35L56 62L0 62Z" fill="#b35f89"></path><path d="M0 125L56 125L56 78L111 78L111 141L167 141L167 120L222 120L222 93L278 93L278 87L333 87L333 111L389 111L389 127L444 127L444 98L500 98L500 125L556 125L556 114L611 114L611 120L667 120L667 145L722 145L722 87L778 87L778 91L833 91L833 93L889 93L889 136L944 136L944 82L1000 82L1000 111L1000 94L1000 76L944 76L944 118L889 118L889 78L833 78L833 85L778 85L778 76L722 76L722 127L667 127L667 112L611 112L611 94L556 94L556 107L500 107L500 78L444 78L444 114L389 114L389 103L333 103L333 64L278 64L278 76L222 76L222 100L167 100L167 123L111 123L111 58L56 58L56 103L0 103Z" fill="#df6875"></path><path d="M0 132L56 132L56 93L111 93L111 145L167 145L167 138L222 138L222 111L278 111L278 107L333 107L333 120L389 120L389 145L444 145L444 105L500 105L500 129L556 129L556 132L611 132L611 127L667 127L667 159L722 159L722 102L778 102L778 111L833 111L833 109L889 109L889 150L944 150L944 89L1000 89L1000 125L1000 109L1000 80L944 80L944 134L889 134L889 91L833 91L833 89L778 89L778 85L722 85L722 143L667 143L667 118L611 118L611 112L556 112L556 123L500 123L500 96L444 96L444 125L389 125L389 109L333 109L333 85L278 85L278 91L222 91L222 118L167 118L167 139L111 139L111 76L56 76L56 123L0 123Z" fill="#e56b6f"></path><path d="M0 143L56 143L56 120L111 120L111 172L167 172L167 156L222 156L222 143L278 143L278 123L333 123L333 145L389 145L389 177L444 177L444 138L500 138L500 143L556 143L556 154L611 154L611 138L667 138L667 177L722 177L722 132L778 132L778 132L833 132L833 123L889 123L889 168L944 168L944 111L1000 111L1000 147L1000 123L1000 87L944 87L944 148L889 148L889 107L833 107L833 109L778 109L778 100L722 100L722 157L667 157L667 125L611 125L611 130L556 130L556 127L500 127L500 103L444 103L444 143L389 143L389 118L333 118L333 105L278 105L278 109L222 109L222 136L167 136L167 143L111 143L111 91L56 91L56 130L0 130Z" fill="#df6875"></path><path d="M0 150L56 150L56 138L111 138L111 181L167 181L167 168L222 168L222 152L278 152L278 143L333 143L333 154L389 154L389 195L444 195L444 156L500 156L500 165L556 165L556 174L611 174L611 161L667 161L667 186L722 186L722 138L778 138L778 154L833 154L833 136L889 136L889 181L944 181L944 134L1000 134L1000 152L1000 145L1000 109L944 109L944 166L889 166L889 121L833 121L833 130L778 130L778 130L722 130L722 175L667 175L667 136L611 136L611 152L556 152L556 141L500 141L500 136L444 136L444 175L389 175L389 143L333 143L333 121L278 121L278 141L222 141L222 154L167 154L167 170L111 170L111 118L56 118L56 141L0 141Z" fill="#b35f89"></path><path d="M0 174L56 174L56 154L111 154L111 206L167 206L167 186L222 186L222 163L278 163L278 165L333 165L333 170L389 170L389 208L444 208L444 174L500 174L500 188L556 188L556 181L611 181L611 170L667 170L667 208L722 208L722 152L778 152L778 168L833 168L833 147L889 147L889 192L944 192L944 154L1000 154L1000 174L1000 150L1000 132L944 132L944 179L889 179L889 134L833 134L833 152L778 152L778 136L722 136L722 184L667 184L667 159L611 159L611 172L556 172L556 163L500 163L500 154L444 154L444 193L389 193L389 152L333 152L333 141L278 141L278 150L222 150L222 166L167 166L167 179L111 179L111 136L56 136L56 148L0 148Z" fill="#7e5c89"></path><path d="M0 226L56 226L56 226L111 226L111 226L167 226L167 226L222 226L222 226L278 226L278 226L333 226L333 226L389 226L389 226L444 226L444 226L500 226L500 226L556 226L556 226L611 226L611 226L667 226L667 226L722 226L722 226L778 226L778 226L833 226L833 226L889 226L889 226L944 226L944 226L1000 226L1000 226L1000 172L1000 152L944 152L944 190L889 190L889 145L833 145L833 166L778 166L778 150L722 150L722 206L667 206L667 168L611 168L611 179L556 179L556 186L500 186L500 172L444 172L444 206L389 206L389 168L333 168L333 163L278 163L278 161L222 161L222 184L167 184L167 204L111 204L111 152L56 152L56 172L0 172Z" fill="#515575"></path></svg>