<svg id="visual" viewBox="0 0 900 600" width="900" height="600" xmlns="http://www.w3.org/2000/svg" xmlns:xlink="http://www.w3.org/1999/xlink" version="1.1"><rect x="0" y="0" width="900" height="600" fill="#E88C7D"></rect><defs><linearGradient id="grad1_0" x1="33.3%" y1="100%" x2="100%" y2="0%"><stop offset="20%" stop-color="#e56b6f" stop-opacity="1"></stop><stop offset="80%" stop-color="#e56b6f" stop-opacity="1"></stop></linearGradient></defs><defs><linearGradient id="grad1_1" x1="33.3%" y1="100%" x2="100%" y2="0%"><stop offset="20%" stop-color="#e56b6f" stop-opacity="1"></stop><stop offset="80%" stop-color="#e88c7d" stop-opacity="1"></stop></linearGradient></defs><defs><linearGradient id="grad2_0" x1="0%" y1="100%" x2="66.7%" y2="0%"><stop offset="20%" stop-color="#e56b6f" stop-opacity="1"></stop><stop offset="80%" stop-color="#e56b6f" stop-opacity="1"></stop></linearGradient></defs><defs><linearGradient id="grad2_1" x1="0%" y1="100%" x2="66.7%" y2="0%"><stop offset="20%" stop-color="#e88c7d" stop-opacity="1"></stop><stop offset="80%" stop-color="#e56b6f" stop-opacity="1"></stop></linearGradient></defs><g transform="translate(900, 600)"><path d="M-405.6 0C-405.7 -30.9 -405.8 -61.9 -395.5 -90.3C-385.1 -118.6 -364.4 -144.4 -342.4 -164.9C-320.3 -185.3 -296.9 -200.4 -280.7 -223.8C-264.5 -247.2 -255.5 -279 -233.8 -293.2C-212.1 -307.4 -177.8 -304.2 -151.9 -315.3C-125.9 -326.5 -108.3 -352.1 -84.3 -369.5C-60.4 -386.9 -30.2 -396.3 0 -405.6L0 0Z" fill="#e77c75"></path><path d="M-202.8 0C-202.8 -15.5 -202.9 -30.9 -197.7 -45.1C-192.6 -59.3 -182.2 -72.2 -171.2 -82.4C-160.2 -92.7 -148.4 -100.2 -140.3 -111.9C-132.2 -123.6 -127.7 -139.5 -116.9 -146.6C-106.1 -153.7 -88.9 -152.1 -75.9 -157.7C-62.9 -163.2 -54.1 -176 -42.2 -184.7C-30.2 -193.5 -15.1 -198.1 0 -202.8L0 0Z" fill="#e56b6f"></path></g><g transform="translate(0, 0)"><path d="M405.6 0C393.8 27.4 382 54.8 379.2 86.6C376.5 118.3 382.9 154.3 365.5 176C348 197.6 306.6 204.9 286.2 228.2C265.7 251.5 266.1 290.9 246.9 309.6C227.7 328.3 188.7 326.4 157.9 328C127.1 329.5 104.4 334.5 79.4 348C54.5 361.6 27.2 383.6 0 405.6L0 0Z" fill="#e77c75"></path><path d="M202.8 0C196.9 13.7 191 27.4 189.6 43.3C188.3 59.1 191.5 77.2 182.7 88C174 98.8 153.3 102.4 143.1 114.1C132.8 125.8 133.1 145.4 123.5 154.8C113.8 164.2 94.4 163.2 79 164C63.6 164.8 52.2 167.3 39.7 174C27.2 180.8 13.6 191.8 0 202.8L0 0Z" fill="#e56b6f"></path></g></svg>