<svg id="visual" viewBox="0 0 900 600" width="900" height="600" xmlns="http://www.w3.org/2000/svg" xmlns:xlink="http://www.w3.org/1999/xlink" version="1.1"><rect x="0" y="0" width="900" height="600" fill="#304966"></rect><defs><linearGradient id="grad1_0" x1="33.3%" y1="100%" x2="100%" y2="0%"><stop offset="20%" stop-color="#6d597a" stop-opacity="1"></stop><stop offset="80%" stop-color="#6d597a" stop-opacity="1"></stop></linearGradient></defs><defs><linearGradient id="grad1_1" x1="33.3%" y1="100%" x2="100%" y2="0%"><stop offset="20%" stop-color="#6d597a" stop-opacity="1"></stop><stop offset="80%" stop-color="#5e5577" stop-opacity="1"></stop></linearGradient></defs><defs><linearGradient id="grad1_2" x1="33.3%" y1="100%" x2="100%" y2="0%"><stop offset="20%" stop-color="#4f5172" stop-opacity="1"></stop><stop offset="80%" stop-color="#5e5577" stop-opacity="1"></stop></linearGradient></defs><defs><linearGradient id="grad1_3" x1="33.3%" y1="100%" x2="100%" y2="0%"><stop offset="20%" stop-color="#4f5172" stop-opacity="1"></stop><stop offset="80%" stop-color="#404d6d" stop-opacity="1"></stop></linearGradient></defs><defs><linearGradient id="grad1_4" x1="33.3%" y1="100%" x2="100%" y2="0%"><stop offset="20%" stop-color="#304966" stop-opacity="1"></stop><stop offset="80%" stop-color="#404d6d" stop-opacity="1"></stop></linearGradient></defs><defs><linearGradient id="grad2_0" x1="0%" y1="100%" x2="66.7%" y2="0%"><stop offset="20%" stop-color="#6d597a" stop-opacity="1"></stop><stop offset="80%" stop-color="#6d597a" stop-opacity="1"></stop></linearGradient></defs><defs><linearGradient id="grad2_1" x1="0%" y1="100%" x2="66.7%" y2="0%"><stop offset="20%" stop-color="#5e5577" stop-opacity="1"></stop><stop offset="80%" stop-color="#6d597a" stop-opacity="1"></stop></linearGradient></defs><defs><linearGradient id="grad2_2" x1="0%" y1="100%" x2="66.7%" y2="0%"><stop offset="20%" stop-color="#5e5577" stop-opacity="1"></stop><stop offset="80%" stop-color="#4f5172" stop-opacity="1"></stop></linearGradient></defs><defs><linearGradient id="grad2_3" x1="0%" y1="100%" x2="66.7%" y2="0%"><stop offset="20%" stop-color="#404d6d" stop-opacity="1"></stop><stop offset="80%" stop-color="#4f5172" stop-opacity="1"></stop></linearGradient></defs><defs><linearGradient id="grad2_4" x1="0%" y1="100%" x2="66.7%" y2="0%"><stop offset="20%" stop-color="#404d6d" stop-opacity="1"></stop><stop offset="80%" stop-color="#304966" stop-opacity="1"></stop></linearGradient></defs><g transform="translate(900, 600)"><path d="M-513.8 0C-486.2 -50.1 -458.7 -100.2 -429.9 -139.7C-401.1 -179.2 -371.1 -208.1 -354.3 -257.4C-337.6 -306.8 -334.1 -376.5 -302 -415.7C-269.9 -454.8 -209.3 -463.3 -154.2 -474.6C-99.1 -485.8 -49.6 -499.8 0 -513.8L0 0Z" fill="#384b6a"></path><path d="M-411 0C-389 -40.1 -366.9 -80.1 -343.9 -111.7C-320.9 -143.3 -296.9 -166.5 -283.5 -206C-270.1 -245.4 -267.3 -301.2 -241.6 -332.5C-215.9 -363.8 -167.4 -370.7 -123.4 -379.7C-79.3 -388.7 -39.6 -399.8 0 -411L0 0Z" fill="#474f70"></path><path d="M-308.3 0C-291.7 -30.1 -275.2 -60.1 -257.9 -83.8C-240.7 -107.5 -222.7 -124.9 -212.6 -154.5C-202.6 -184.1 -200.4 -225.9 -181.2 -249.4C-162 -272.9 -125.6 -278 -92.5 -284.7C-59.5 -291.5 -29.7 -299.9 0 -308.3L0 0Z" fill="#575375"></path><path d="M-205.5 0C-194.5 -20 -183.5 -40.1 -172 -55.9C-160.4 -71.7 -148.4 -83.2 -141.7 -103C-135 -122.7 -133.6 -150.6 -120.8 -166.3C-108 -181.9 -83.7 -185.3 -61.7 -189.8C-39.6 -194.3 -19.8 -199.9 0 -205.5L0 0Z" fill="#665779"></path><path d="M-102.8 0C-97.2 -10 -91.7 -20 -86 -27.9C-80.2 -35.8 -74.2 -41.6 -70.9 -51.5C-67.5 -61.4 -66.8 -75.3 -60.4 -83.1C-54 -91 -41.9 -92.7 -30.8 -94.9C-19.8 -97.2 -9.9 -100 0 -102.8L0 0Z" fill="#6d597a"></path></g><g transform="translate(0, 0)"><path d="M513.8 0C508.8 53.6 503.9 107.3 488.6 158.8C473.4 210.3 448 259.7 412.6 299.8C377.2 339.9 331.9 370.7 286.3 394C240.6 417.3 194.6 433 146.8 451.8C99 470.5 49.5 492.1 0 513.8L0 0Z" fill="#384b6a"></path><path d="M411 0C407.1 42.9 403.1 85.8 390.9 127C378.7 168.2 358.4 207.7 330.1 239.8C301.8 271.9 265.5 296.6 229 315.2C192.5 333.8 155.6 346.4 117.4 361.4C79.2 376.4 39.6 393.7 0 411L0 0Z" fill="#474f70"></path><path d="M308.3 0C305.3 32.2 302.3 64.4 293.2 95.3C284.1 126.2 268.8 155.8 247.6 179.9C226.3 203.9 199.2 222.4 171.8 236.4C144.4 250.4 116.7 259.8 88.1 271.1C59.4 282.3 29.7 295.3 0 308.3L0 0Z" fill="#575375"></path><path d="M205.5 0C203.5 21.5 201.5 42.9 195.5 63.5C189.4 84.1 179.2 103.9 165 119.9C150.9 136 132.8 148.3 114.5 157.6C96.2 166.9 77.8 173.2 58.7 180.7C39.6 188.2 19.8 196.9 0 205.5L0 0Z" fill="#665779"></path><path d="M102.8 0C101.8 10.7 100.8 21.5 97.7 31.8C94.7 42.1 89.6 51.9 82.5 60C75.4 68 66.4 74.1 57.3 78.8C48.1 83.5 38.9 86.6 29.4 90.4C19.8 94.1 9.9 98.4 0 102.8L0 0Z" fill="#6d597a"></path></g></svg>