<svg id="visual" viewBox="0 0 900 600" width="900" height="600" xmlns="http://www.w3.org/2000/svg" xmlns:xlink="http://www.w3.org/1999/xlink" version="1.1"><rect x="0" y="0" width="900" height="600" fill="#304966"></rect><defs><linearGradient id="grad1_0" x1="33.3%" y1="0%" x2="100%" y2="100%"><stop offset="20%" stop-color="#6d597a" stop-opacity="1"></stop><stop offset="80%" stop-color="#6d597a" stop-opacity="1"></stop></linearGradient></defs><defs><linearGradient id="grad1_1" x1="33.3%" y1="0%" x2="100%" y2="100%"><stop offset="20%" stop-color="#6d597a" stop-opacity="1"></stop><stop offset="80%" stop-color="#5e5577" stop-opacity="1"></stop></linearGradient></defs><defs><linearGradient id="grad1_2" x1="33.3%" y1="0%" x2="100%" y2="100%"><stop offset="20%" stop-color="#4f5172" stop-opacity="1"></stop><stop offset="80%" stop-color="#5e5577" stop-opacity="1"></stop></linearGradient></defs><defs><linearGradient id="grad1_3" x1="33.3%" y1="0%" x2="100%" y2="100%"><stop offset="20%" stop-color="#4f5172" stop-opacity="1"></stop><stop offset="80%" stop-color="#404d6d" stop-opacity="1"></stop></linearGradient></defs><defs><linearGradient id="grad1_4" x1="33.3%" y1="0%" x2="100%" y2="100%"><stop offset="20%" stop-color="#304966" stop-opacity="1"></stop><stop offset="80%" stop-color="#404d6d" stop-opacity="1"></stop></linearGradient></defs><defs><linearGradient id="grad2_0" x1="0%" y1="0%" x2="66.7%" y2="100%"><stop offset="20%" stop-color="#6d597a" stop-opacity="1"></stop><stop offset="80%" stop-color="#6d597a" stop-opacity="1"></stop></linearGradient></defs><defs><linearGradient id="grad2_1" x1="0%" y1="0%" x2="66.7%" y2="100%"><stop offset="20%" stop-color="#5e5577" stop-opacity="1"></stop><stop offset="80%" stop-color="#6d597a" stop-opacity="1"></stop></linearGradient></defs><defs><linearGradient id="grad2_2" x1="0%" y1="0%" x2="66.7%" y2="100%"><stop offset="20%" stop-color="#5e5577" stop-opacity="1"></stop><stop offset="80%" stop-color="#4f5172" stop-opacity="1"></stop></linearGradient></defs><defs><linearGradient id="grad2_3" x1="0%" y1="0%" x2="66.7%" y2="100%"><stop offset="20%" stop-color="#404d6d" stop-opacity="1"></stop><stop offset="80%" stop-color="#4f5172" stop-opacity="1"></stop></linearGradient></defs><defs><linearGradient id="grad2_4" x1="0%" y1="0%" x2="66.7%" y2="100%"><stop offset="20%" stop-color="#404d6d" stop-opacity="1"></stop><stop offset="80%" stop-color="#304966" stop-opacity="1"></stop></linearGradient></defs><g transform="translate(900, 0)"><path d="M0 540.8C-46.6 507.2 -93.2 473.6 -150.5 463.2C-207.7 452.7 -275.6 465.5 -317.9 437.5C-360.2 409.6 -376.9 340.8 -394.8 286.8C-412.7 232.9 -432 193.7 -456.5 148.3C-481.1 103 -510.9 51.5 -540.8 0L0 0Z" fill="#384b6a"></path><path d="M0 432.7C-37.3 405.8 -74.6 378.9 -120.4 370.5C-166.2 362.2 -220.5 372.4 -254.3 350C-288.1 327.6 -301.5 272.6 -315.8 229.5C-330.2 186.3 -345.6 154.9 -365.2 118.7C-384.8 82.4 -408.8 41.2 -432.7 0L0 0Z" fill="#474f70"></path><path d="M0 324.5C-28 304.3 -55.9 284.2 -90.3 277.9C-124.6 271.6 -165.4 279.3 -190.7 262.5C-216.1 245.7 -226.1 204.5 -236.9 172.1C-247.6 139.7 -259.2 116.2 -273.9 89C-288.6 61.8 -306.6 30.9 -324.5 0L0 0Z" fill="#575375"></path><path d="M0 216.3C-18.6 202.9 -37.3 189.4 -60.2 185.3C-83.1 181.1 -110.2 186.2 -127.2 175C-144.1 163.8 -150.7 136.3 -157.9 114.7C-165.1 93.1 -172.8 77.5 -182.6 59.3C-192.4 41.2 -204.4 20.6 -216.3 0L0 0Z" fill="#665779"></path><path d="M0 108.2C-9.3 101.4 -18.6 94.7 -30.1 92.6C-41.5 90.5 -55.1 93.1 -63.6 87.5C-72 81.9 -75.4 68.2 -79 57.4C-82.5 46.6 -86.4 38.7 -91.3 29.7C-96.2 20.6 -102.2 10.3 -108.2 0L0 0Z" fill="#6d597a"></path></g><g transform="translate(0, 600)"><path d="M0 -540.8C63.9 -545.5 127.8 -550.1 167.1 -514.4C206.4 -478.6 221.1 -402.4 268 -368.9C314.9 -335.4 394.1 -344.5 432.8 -314.5C471.6 -284.4 470 -215.3 481.2 -156.4C492.5 -97.4 516.7 -48.7 540.8 0L0 0Z" fill="#384b6a"></path><path d="M0 -432.7C51.1 -436.4 102.3 -440.1 133.7 -411.5C165.1 -382.9 176.9 -322 214.4 -295.1C252 -268.3 315.3 -275.6 346.3 -251.6C377.3 -227.6 376 -172.2 385 -125.1C394 -77.9 413.3 -39 432.7 0L0 0Z" fill="#474f70"></path><path d="M0 -324.5C38.3 -327.3 76.7 -330.1 100.3 -308.6C123.9 -287.2 132.7 -241.5 160.8 -221.3C189 -201.2 236.4 -206.7 259.7 -188.7C282.9 -170.7 282 -129.2 288.7 -93.8C295.5 -58.5 310 -29.2 324.5 0L0 0Z" fill="#575375"></path><path d="M0 -216.3C25.6 -218.2 51.1 -220 66.9 -205.7C82.6 -191.4 88.4 -161 107.2 -147.6C126 -134.2 157.6 -137.8 173.1 -125.8C188.6 -113.8 188 -86.1 192.5 -62.5C197 -39 206.7 -19.5 216.3 0L0 0Z" fill="#665779"></path><path d="M0 -108.2C12.8 -109.1 25.6 -110 33.4 -102.9C41.3 -95.7 44.2 -80.5 53.6 -73.8C63 -67.1 78.8 -68.9 86.6 -62.9C94.3 -56.9 94 -43.1 96.2 -31.3C98.5 -19.5 103.3 -9.7 108.2 0L0 0Z" fill="#6d597a"></path></g></svg>