<svg id="visual" viewBox="0 0 900 600" width="900" height="600" xmlns="http://www.w3.org/2000/svg" xmlns:xlink="http://www.w3.org/1999/xlink" version="1.1"><path d="M0 200L21.5 193C43 186 86 172 128.8 174.5C171.7 177 214.3 196 257.2 196.8C300 197.7 343 180.3 385.8 176.2C428.7 172 471.3 181 514.2 183.3C557 185.7 600 181.3 642.8 176.2C685.7 171 728.3 165 771.2 167.8C814 170.7 857 182.3 878.5 188.2L900 194L900 0L878.5 0C857 0 814 0 771.2 0C728.3 0 685.7 0 642.8 0C600 0 557 0 514.2 0C471.3 0 428.7 0 385.8 0C343 0 300 0 257.2 0C214.3 0 171.7 0 128.8 0C86 0 43 0 21.5 0L0 0Z" fill="#304966"></path><path d="M0 122L21.5 132.7C43 143.3 86 164.7 128.8 178.5C171.7 192.3 214.3 198.7 257.2 197.5C300 196.3 343 187.7 385.8 185C428.7 182.3 471.3 185.7 514.2 176C557 166.3 600 143.7 642.8 136.8C685.7 130 728.3 139 771.2 141.8C814 144.7 857 141.3 878.5 139.7L900 138L900 0L878.5 0C857 0 814 0 771.2 0C728.3 0 685.7 0 642.8 0C600 0 557 0 514.2 0C471.3 0 428.7 0 385.8 0C343 0 300 0 257.2 0C214.3 0 171.7 0 128.8 0C86 0 43 0 21.5 0L0 0Z" fill="#bc8997"></path><path d="M0 123L21.5 125.2C43 127.3 86 131.7 128.8 132C171.7 132.3 214.3 128.7 257.2 125.7C300 122.7 343 120.3 385.8 120.3C428.7 120.3 471.3 122.7 514.2 118C557 113.3 600 101.7 642.8 97C685.7 92.3 728.3 94.7 771.2 98.7C814 102.7 857 108.3 878.5 111.2L900 114L900 0L878.5 0C857 0 814 0 771.2 0C728.3 0 685.7 0 642.8 0C600 0 557 0 514.2 0C471.3 0 428.7 0 385.8 0C343 0 300 0 257.2 0C214.3 0 171.7 0 128.8 0C86 0 43 0 21.5 0L0 0Z" fill="#f0c1a9"></path><path d="M0 95L21.5 98.5C43 102 86 109 128.8 105.3C171.7 101.7 214.3 87.3 257.2 80.7C300 74 343 75 385.8 74.3C428.7 73.7 471.3 71.3 514.2 69.5C557 67.7 600 66.3 642.8 66.5C685.7 66.7 728.3 68.3 771.2 70.7C814 73 857 76 878.5 77.5L900 79L900 0L878.5 0C857 0 814 0 771.2 0C728.3 0 685.7 0 642.8 0C600 0 557 0 514.2 0C471.3 0 428.7 0 385.8 0C343 0 300 0 257.2 0C214.3 0 171.7 0 128.8 0C86 0 43 0 21.5 0L0 0Z" fill="#bc8997"></path><path d="M0 55L21.5 51.2C43 47.3 86 39.7 128.8 41C171.7 42.3 214.3 52.7 257.2 55C300 57.3 343 51.7 385.8 50.3C428.7 49 471.3 52 514.2 54.3C557 56.7 600 58.3 642.8 58.8C685.7 59.3 728.3 58.7 771.2 56C814 53.3 857 48.7 878.5 46.3L900 44L900 0L878.5 0C857 0 814 0 771.2 0C728.3 0 685.7 0 642.8 0C600 0 557 0 514.2 0C471.3 0 428.7 0 385.8 0C343 0 300 0 257.2 0C214.3 0 171.7 0 128.8 0C86 0 43 0 21.5 0L0 0Z" fill="#304966"></path></svg>