<svg id="visual" viewBox="0 0 900 600" width="900" height="600" xmlns="http://www.w3.org/2000/svg"
     xmlns:xlink="http://www.w3.org/1999/xlink" version="1.1">
    <rect x="0" y="0" width="900" height="600" fill="#001220"></rect>
    <defs>
        <linearGradient id="grad1_0" x1="33.3%" y1="100%" x2="100%" y2="0%">
            <stop offset="20%" stop-color="#fbae3c" stop-opacity="1"></stop>
            <stop offset="80%" stop-color="#fbae3c" stop-opacity="1"></stop>
        </linearGradient>
    </defs>
    <defs>
        <linearGradient id="grad1_1" x1="33.3%" y1="100%" x2="100%" y2="0%">
            <stop offset="20%" stop-color="#fbae3c" stop-opacity="1"></stop>
            <stop offset="80%" stop-color="#96446e" stop-opacity="1"></stop>
        </linearGradient>
    </defs>
    <defs>
        <linearGradient id="grad1_2" x1="33.3%" y1="100%" x2="100%" y2="0%">
            <stop offset="20%" stop-color="#001220" stop-opacity="1"></stop>
            <stop offset="80%" stop-color="#96446e" stop-opacity="1"></stop>
        </linearGradient>
    </defs>
    <defs>
        <linearGradient id="grad2_0" x1="0%" y1="100%" x2="66.7%" y2="0%">
            <stop offset="20%" stop-color="#fbae3c" stop-opacity="1"></stop>
            <stop offset="80%" stop-color="#fbae3c" stop-opacity="1"></stop>
        </linearGradient>
    </defs>
    <defs>
        <linearGradient id="grad2_1" x1="0%" y1="100%" x2="66.7%" y2="0%">
            <stop offset="20%" stop-color="#96446e" stop-opacity="1"></stop>
            <stop offset="80%" stop-color="#fbae3c" stop-opacity="1"></stop>
        </linearGradient>
    </defs>
    <defs>
        <linearGradient id="grad2_2" x1="0%" y1="100%" x2="66.7%" y2="0%">
            <stop offset="20%" stop-color="#96446e" stop-opacity="1"></stop>
            <stop offset="80%" stop-color="#001220" stop-opacity="1"></stop>
        </linearGradient>
    </defs>
    <g transform="translate(900, 600)">
        <path d="M-435 0C-451.5 -36.8 -468.1 -73.6 -457.2 -104.4C-446.4 -135.1 -408.2 -159.9 -382 -184C-355.8 -208.1 -341.6 -231.5 -329.2 -262.5C-316.7 -293.4 -305.9 -331.8 -281.8 -353.4C-257.7 -374.9 -220.3 -379.6 -189.2 -392.8C-158 -406.1 -133.1 -427.9 -102.6 -449.4C-72.1 -471 -36 -492.4 0 -513.8L0 0Z"
              fill="#3d3056"></path>
        <path d="M-290 0C-301 -24.5 -312 -49.1 -304.8 -69.6C-297.6 -90.1 -272.1 -106.6 -254.7 -122.6C-237.2 -138.7 -227.8 -154.4 -219.4 -175C-211.1 -195.6 -203.9 -221.2 -187.9 -235.6C-171.8 -250 -146.9 -253.1 -126.1 -261.9C-105.3 -270.7 -88.7 -285.2 -68.4 -299.6C-48.1 -314 -24 -328.3 0 -342.5L0 0Z"
              fill="#e1685e"></path>
        <path d="M-145 0C-150.5 -12.3 -156 -24.5 -152.4 -34.8C-148.8 -45 -136.1 -53.3 -127.3 -61.3C-118.6 -69.4 -113.9 -77.2 -109.7 -87.5C-105.6 -97.8 -102 -110.6 -93.9 -117.8C-85.9 -125 -73.4 -126.5 -63.1 -130.9C-52.7 -135.4 -44.4 -142.6 -34.2 -149.8C-24 -157 -12 -164.1 0 -171.3L0 0Z"
              fill="#fbae3c"></path>
    </g>
    <g transform="translate(0, 0)">
        <path d="M444 0C435.8 29.6 427.6 59.3 435.8 99.5C444 139.7 468.6 190.4 450.5 216.9C432.4 243.5 371.7 245.7 348.7 278.1C325.7 310.4 340.4 372.9 320.3 401.7C300.3 430.5 245.4 425.5 201.8 419C158.2 412.4 125.9 404.3 94.1 412.4C62.4 420.5 31.2 444.7 0 469L0 0Z"
              fill="#3d3056"></path>
        <path d="M296 0C290.5 19.8 285.1 39.5 290.5 66.3C296 93.1 312.4 127 300.3 144.6C288.3 162.3 247.8 163.8 232.5 185.4C217.1 207 227 248.6 213.6 267.8C200.2 287 163.6 283.7 134.5 279.3C105.4 274.9 83.9 269.5 62.8 274.9C41.6 280.3 20.8 296.5 0 312.7L0 0Z"
              fill="#e1685e"></path>
        <path d="M148 0C145.3 9.9 142.5 19.8 145.3 33.2C148 46.6 156.2 63.5 150.2 72.3C144.1 81.2 123.9 81.9 116.2 92.7C108.6 103.5 113.5 124.3 106.8 133.9C100.1 143.5 81.8 141.8 67.3 139.7C52.7 137.5 42 134.8 31.4 137.5C20.8 140.2 10.4 148.2 0 156.3L0 0Z"
              fill="#fbae3c"></path>
    </g>
</svg>
