<svg id="visual" viewBox="0 0 960 50" width="960" height="50"
     xmlns="http://www.w3.org/2000/svg" xmlns:xlink="http://www.w3.org/1999/xlink"
     version="1.1">
    <path d="M0 36L14.5 35.8C29 35.7 58 35.3 87.2 34C116.3 32.7 145.7 30.3 174.8 29.5C204 28.7 233 29.3 262 30.7C291 32 320 34 349 33.8C378 33.7 407 31.3 436.2 30.5C465.3 29.7 494.7 30.3 523.8 30.5C553 30.7 582 30.3 611 30.7C640 31 669 32 698 32.8C727 33.7 756 34.3 785.2 33.7C814.3 33 843.7 31 872.8 30.3C902 29.7 931 30.3 945.5 30.7L960 31L960 0L945.5 0C931 0 902 0 872.8 0C843.7 0 814.3 0 785.2 0C756 0 727 0 698 0C669 0 640 0 611 0C582 0 553 0 523.8 0C494.7 0 465.3 0 436.2 0C407 0 378 0 349 0C320 0 291 0 262 0C233 0 204 0 174.8 0C145.7 0 116.3 0 87.2 0C58 0 29 0 14.5 0L0 0Z"
          fill="#f0c1a9"></path>
    <path d="M0 28L14.5 27C29 26 58 24 87.2 24.2C116.3 24.3 145.7 26.7 174.8 26.7C204 26.7 233 24.3 262 23.7C291 23 320 24 349 24.5C378 25 407 25 436.2 24.7C465.3 24.3 494.7 23.7 523.8 23.7C553 23.7 582 24.3 611 24.2C640 24 669 23 698 22.7C727 22.3 756 22.7 785.2 23.5C814.3 24.3 843.7 25.7 872.8 25.5C902 25.3 931 23.7 945.5 22.8L960 22L960 0L945.5 0C931 0 902 0 872.8 0C843.7 0 814.3 0 785.2 0C756 0 727 0 698 0C669 0 640 0 611 0C582 0 553 0 523.8 0C494.7 0 465.3 0 436.2 0C407 0 378 0 349 0C320 0 291 0 262 0C233 0 204 0 174.8 0C145.7 0 116.3 0 87.2 0C58 0 29 0 14.5 0L0 0Z"
          fill="#eda68f"></path>
    <path d="M0 16L14.5 16.7C29 17.3 58 18.7 87.2 18.5C116.3 18.3 145.7 16.7 174.8 15.8C204 15 233 15 262 15.7C291 16.3 320 17.7 349 18.5C378 19.3 407 19.7 436.2 19.2C465.3 18.7 494.7 17.3 523.8 17.3C553 17.3 582 18.7 611 19.2C640 19.7 669 19.3 698 18.5C727 17.7 756 16.3 785.2 16.7C814.3 17 843.7 19 872.8 20C902 21 931 21 945.5 21L960 21L960 0L945.5 0C931 0 902 0 872.8 0C843.7 0 814.3 0 785.2 0C756 0 727 0 698 0C669 0 640 0 611 0C582 0 553 0 523.8 0C494.7 0 465.3 0 436.2 0C407 0 378 0 349 0C320 0 291 0 262 0C233 0 204 0 174.8 0C145.7 0 116.3 0 87.2 0C58 0 29 0 14.5 0L0 0Z"
          fill="#ea8a7b"></path>
    <path d="M0 10L14.5 9.7C29 9.3 58 8.7 87.2 8.3C116.3 8 145.7 8 174.8 8.8C204 9.7 233 11.3 262 11.5C291 11.7 320 10.3 349 10C378 9.7 407 10.3 436.2 10C465.3 9.7 494.7 8.3 523.8 8.2C553 8 582 9 611 9C640 9 669 8 698 7.5C727 7 756 7 785.2 7.7C814.3 8.3 843.7 9.7 872.8 10.2C902 10.7 931 10.3 945.5 10.2L960 10L960 0L945.5 0C931 0 902 0 872.8 0C843.7 0 814.3 0 785.2 0C756 0 727 0 698 0C669 0 640 0 611 0C582 0 553 0 523.8 0C494.7 0 465.3 0 436.2 0C407 0 378 0 349 0C320 0 291 0 262 0C233 0 204 0 174.8 0C145.7 0 116.3 0 87.2 0C58 0 29 0 14.5 0L0 0Z"
          fill="#e56b6f"></path>
</svg>