<svg id="visual" viewBox="0 0 960 540" width="960" height="540" xmlns="http://www.w3.org/2000/svg" xmlns:xlink="http://www.w3.org/1999/xlink" version="1.1"><path d="M594 540L611.7 517.5C629.3 495 664.7 450 687.2 405C709.7 360 719.3 315 719.3 270C719.3 225 709.7 180 703.2 135C696.7 90 693.3 45 691.7 22.5L690 0L960 0L960 22.5C960 45 960 90 960 135C960 180 960 225 960 270C960 315 960 360 960 405C960 450 960 495 960 517.5L960 540Z" fill="#f0c1a9"></path><path d="M335 540L359 517.5C383 495 431 450 472.7 405C514.3 360 549.7 315 565.7 270C581.7 225 578.3 180 567 135C555.7 90 536.3 45 526.7 22.5L517 0L691 0L692.7 22.5C694.3 45 697.7 90 704.2 135C710.7 180 720.3 225 720.3 270C720.3 315 710.7 360 688.2 405C665.7 450 630.3 495 612.7 517.5L595 540Z" fill="#eead95"></path><path d="M229 540L245 517.5C261 495 293 450 320.3 405C347.7 360 370.3 315 392.8 270C415.3 225 437.7 180 436 135C434.3 90 408.7 45 395.8 22.5L383 0L518 0L527.7 22.5C537.3 45 556.7 90 568 135C579.3 180 582.7 225 566.7 270C550.7 315 515.3 360 473.7 405C432 450 384 495 360 517.5L336 540Z" fill="#ec9884"></path><path d="M85 540L86.7 517.5C88.3 495 91.7 450 93.3 405C95 360 95 315 93.3 270C91.7 225 88.3 180 86.7 135C85 90 85 45 85 22.5L85 0L384 0L396.8 22.5C409.7 45 435.3 90 437 135C438.7 180 416.3 225 393.8 270C371.3 315 348.7 360 321.3 405C294 450 262 495 246 517.5L230 540Z" fill="#e98278"></path><path d="M0 540L0 517.5C0 495 0 450 0 405C0 360 0 315 0 270C0 225 0 180 0 135C0 90 0 45 0 22.5L0 0L86 0L86 22.5C86 45 86 90 87.7 135C89.3 180 92.7 225 94.3 270C96 315 96 360 94.3 405C92.7 450 89.3 495 87.7 517.5L86 540Z" fill="#e56b6f"></path></svg>