<svg id="visual" viewBox="0 0 900 600" width="900" height="600" xmlns="http://www.w3.org/2000/svg" xmlns:xlink="http://www.w3.org/1999/xlink" version="1.1"><path d="M0 55L9.3 57C18.7 59 37.3 63 56.2 60C75 57 94 47 112.8 46C131.7 45 150.3 53 169 54C187.7 55 206.3 49 225 48C243.7 47 262.3 51 281.2 51C300 51 319 47 337.8 44C356.7 41 375.3 39 394 41C412.7 43 431.3 49 450 53C468.7 57 487.3 59 506.2 58C525 57 544 53 562.8 48C581.7 43 600.3 37 619 36C637.7 35 656.3 39 675 39C693.7 39 712.3 35 731.2 37C750 39 769 47 787.8 52C806.7 57 825.3 59 844 58C862.7 57 881.3 53 890.7 51L900 49L900 0L890.7 0C881.3 0 862.7 0 844 0C825.3 0 806.7 0 787.8 0C769 0 750 0 731.2 0C712.3 0 693.7 0 675 0C656.3 0 637.7 0 619 0C600.3 0 581.7 0 562.8 0C544 0 525 0 506.2 0C487.3 0 468.7 0 450 0C431.3 0 412.7 0 394 0C375.3 0 356.7 0 337.8 0C319 0 300 0 281.2 0C262.3 0 243.7 0 225 0C206.3 0 187.7 0 169 0C150.3 0 131.7 0 112.8 0C94 0 75 0 56.2 0C37.3 0 18.7 0 9.3 0L0 0Z" fill="#304966"></path><path d="M0 157L9.3 165C18.7 173 37.3 189 56.2 183C75 177 94 149 112.8 142C131.7 135 150.3 149 169 148C187.7 147 206.3 131 225 138C243.7 145 262.3 175 281.2 185C300 195 319 185 337.8 168C356.7 151 375.3 127 394 129C412.7 131 431.3 159 450 172C468.7 185 487.3 183 506.2 180C525 177 544 173 562.8 162C581.7 151 600.3 133 619 125C637.7 117 656.3 119 675 121C693.7 123 712.3 125 731.2 139C750 153 769 179 787.8 191C806.7 203 825.3 201 844 198C862.7 195 881.3 191 890.7 189L900 187L900 47L890.7 49C881.3 51 862.7 55 844 56C825.3 57 806.7 55 787.8 50C769 45 750 37 731.2 35C712.3 33 693.7 37 675 37C656.3 37 637.7 33 619 34C600.3 35 581.7 41 562.8 46C544 51 525 55 506.2 56C487.3 57 468.7 55 450 51C431.3 47 412.7 41 394 39C375.3 37 356.7 39 337.8 42C319 45 300 49 281.2 49C262.3 49 243.7 45 225 46C206.3 47 187.7 53 169 52C150.3 51 131.7 43 112.8 44C94 45 75 55 56.2 58C37.3 61 18.7 57 9.3 55L0 53Z" fill="#3e4d6c"></path><path d="M0 205L9.3 217C18.7 229 37.3 253 56.2 252C75 251 94 225 112.8 220C131.7 215 150.3 231 169 232C187.7 233 206.3 219 225 220C243.7 221 262.3 237 281.2 244C300 251 319 249 337.8 234C356.7 219 375.3 191 394 188C412.7 185 431.3 207 450 223C468.7 239 487.3 249 506.2 254C525 259 544 259 562.8 244C581.7 229 600.3 199 619 189C637.7 179 656.3 189 675 192C693.7 195 712.3 191 731.2 199C750 207 769 227 787.8 239C806.7 251 825.3 255 844 253C862.7 251 881.3 243 890.7 239L900 235L900 185L890.7 187C881.3 189 862.7 193 844 196C825.3 199 806.7 201 787.8 189C769 177 750 151 731.2 137C712.3 123 693.7 121 675 119C656.3 117 637.7 115 619 123C600.3 131 581.7 149 562.8 160C544 171 525 175 506.2 178C487.3 181 468.7 183 450 170C431.3 157 412.7 129 394 127C375.3 125 356.7 149 337.8 166C319 183 300 193 281.2 183C262.3 173 243.7 143 225 136C206.3 129 187.7 145 169 146C150.3 147 131.7 133 112.8 140C94 147 75 175 56.2 181C37.3 187 18.7 171 9.3 163L0 155Z" fill="#4c5071"></path><path d="M0 259L9.3 266C18.7 273 37.3 287 56.2 283C75 279 94 257 112.8 255C131.7 253 150.3 271 169 271C187.7 271 206.3 253 225 251C243.7 249 262.3 263 281.2 273C300 283 319 289 337.8 277C356.7 265 375.3 235 394 231C412.7 227 431.3 249 450 265C468.7 281 487.3 291 506.2 298C525 305 544 309 562.8 295C581.7 281 600.3 249 619 238C637.7 227 656.3 237 675 237C693.7 237 712.3 227 731.2 231C750 235 769 253 787.8 268C806.7 283 825.3 295 844 295C862.7 295 881.3 283 890.7 277L900 271L900 233L890.7 237C881.3 241 862.7 249 844 251C825.3 253 806.7 249 787.8 237C769 225 750 205 731.2 197C712.3 189 693.7 193 675 190C656.3 187 637.7 177 619 187C600.3 197 581.7 227 562.8 242C544 257 525 257 506.2 252C487.3 247 468.7 237 450 221C431.3 205 412.7 183 394 186C375.3 189 356.7 217 337.8 232C319 247 300 249 281.2 242C262.3 235 243.7 219 225 218C206.3 217 187.7 231 169 230C150.3 229 131.7 213 112.8 218C94 223 75 249 56.2 250C37.3 251 18.7 227 9.3 215L0 203Z" fill="#5a5475"></path><path d="M0 301L9.3 306C18.7 311 37.3 321 56.2 315C75 309 94 287 112.8 287C131.7 287 150.3 309 169 310C187.7 311 206.3 291 225 289C243.7 287 262.3 303 281.2 310C300 317 319 315 337.8 302C356.7 289 375.3 265 394 265C412.7 265 431.3 289 450 306C468.7 323 487.3 333 506.2 337C525 341 544 339 562.8 321C581.7 303 600.3 269 619 260C637.7 251 656.3 267 675 270C693.7 273 712.3 263 731.2 264C750 265 769 277 787.8 291C806.7 305 825.3 321 844 322C862.7 323 881.3 309 890.7 302L900 295L900 269L890.7 275C881.3 281 862.7 293 844 293C825.3 293 806.7 281 787.8 266C769 251 750 233 731.2 229C712.3 225 693.7 235 675 235C656.3 235 637.7 225 619 236C600.3 247 581.7 279 562.8 293C544 307 525 303 506.2 296C487.3 289 468.7 279 450 263C431.3 247 412.7 225 394 229C375.3 233 356.7 263 337.8 275C319 287 300 281 281.2 271C262.3 261 243.7 247 225 249C206.3 251 187.7 269 169 269C150.3 269 131.7 251 112.8 253C94 255 75 277 56.2 281C37.3 285 18.7 271 9.3 264L0 257Z" fill="#685879"></path><path d="M0 373L9.3 377C18.7 381 37.3 389 56.2 384C75 379 94 361 112.8 358C131.7 355 150.3 367 169 367C187.7 367 206.3 355 225 350C243.7 345 262.3 347 281.2 350C300 353 319 357 337.8 350C356.7 343 375.3 325 394 324C412.7 323 431.3 339 450 352C468.7 365 487.3 375 506.2 383C525 391 544 397 562.8 384C581.7 371 600.3 339 619 324C637.7 309 656.3 311 675 311C693.7 311 712.3 309 731.2 315C750 321 769 335 787.8 353C806.7 371 825.3 393 844 394C862.7 395 881.3 375 890.7 365L900 355L900 293L890.7 300C881.3 307 862.7 321 844 320C825.3 319 806.7 303 787.8 289C769 275 750 263 731.2 262C712.3 261 693.7 271 675 268C656.3 265 637.7 249 619 258C600.3 267 581.7 301 562.8 319C544 337 525 339 506.2 335C487.3 331 468.7 321 450 304C431.3 287 412.7 263 394 263C375.3 263 356.7 287 337.8 300C319 313 300 315 281.2 308C262.3 301 243.7 285 225 287C206.3 289 187.7 309 169 308C150.3 307 131.7 285 112.8 285C94 285 75 307 56.2 313C37.3 319 18.7 309 9.3 304L0 299Z" fill="#6d597a"></path><path d="M0 391L9.3 394C18.7 397 37.3 403 56.2 398C75 393 94 377 112.8 374C131.7 371 150.3 381 169 383C187.7 385 206.3 379 225 377C243.7 375 262.3 377 281.2 380C300 383 319 387 337.8 379C356.7 371 375.3 351 394 350C412.7 349 431.3 367 450 380C468.7 393 487.3 401 506.2 407C525 413 544 417 562.8 403C581.7 389 600.3 357 619 341C637.7 325 656.3 325 675 326C693.7 327 712.3 329 731.2 338C750 347 769 363 787.8 379C806.7 395 825.3 411 844 411C862.7 411 881.3 395 890.7 387L900 379L900 353L890.7 363C881.3 373 862.7 393 844 392C825.3 391 806.7 369 787.8 351C769 333 750 319 731.2 313C712.3 307 693.7 309 675 309C656.3 309 637.7 307 619 322C600.3 337 581.7 369 562.8 382C544 395 525 389 506.2 381C487.3 373 468.7 363 450 350C431.3 337 412.7 321 394 322C375.3 323 356.7 341 337.8 348C319 355 300 351 281.2 348C262.3 345 243.7 343 225 348C206.3 353 187.7 365 169 365C150.3 365 131.7 353 112.8 356C94 359 75 377 56.2 382C37.3 387 18.7 379 9.3 375L0 371Z" fill="#6d597a"></path><path d="M0 409L9.3 412C18.7 415 37.3 421 56.2 415C75 409 94 391 112.8 387C131.7 383 150.3 393 169 395C187.7 397 206.3 391 225 390C243.7 389 262.3 393 281.2 398C300 403 319 409 337.8 402C356.7 395 375.3 375 394 375C412.7 375 431.3 395 450 408C468.7 421 487.3 427 506.2 431C525 435 544 437 562.8 424C581.7 411 600.3 383 619 367C637.7 351 656.3 347 675 347C693.7 347 712.3 351 731.2 362C750 373 769 391 787.8 405C806.7 419 825.3 429 844 429C862.7 429 881.3 419 890.7 414L900 409L900 377L890.7 385C881.3 393 862.7 409 844 409C825.3 409 806.7 393 787.8 377C769 361 750 345 731.2 336C712.3 327 693.7 325 675 324C656.3 323 637.7 323 619 339C600.3 355 581.7 387 562.8 401C544 415 525 411 506.2 405C487.3 399 468.7 391 450 378C431.3 365 412.7 347 394 348C375.3 349 356.7 369 337.8 377C319 385 300 381 281.2 378C262.3 375 243.7 373 225 375C206.3 377 187.7 383 169 381C150.3 379 131.7 369 112.8 372C94 375 75 391 56.2 396C37.3 401 18.7 395 9.3 392L0 389Z" fill="#685879"></path><path d="M0 433L9.3 437C18.7 441 37.3 449 56.2 445C75 441 94 425 112.8 421C131.7 417 150.3 425 169 426C187.7 427 206.3 421 225 418C243.7 415 262.3 415 281.2 419C300 423 319 431 337.8 426C356.7 421 375.3 403 394 404C412.7 405 431.3 425 450 437C468.7 449 487.3 453 506.2 457C525 461 544 465 562.8 451C581.7 437 600.3 405 619 388C637.7 371 656.3 369 675 369C693.7 369 712.3 371 731.2 381C750 391 769 409 787.8 424C806.7 439 825.3 451 844 454C862.7 457 881.3 451 890.7 448L900 445L900 407L890.7 412C881.3 417 862.7 427 844 427C825.3 427 806.7 417 787.8 403C769 389 750 371 731.2 360C712.3 349 693.7 345 675 345C656.3 345 637.7 349 619 365C600.3 381 581.7 409 562.8 422C544 435 525 433 506.2 429C487.3 425 468.7 419 450 406C431.3 393 412.7 373 394 373C375.3 373 356.7 393 337.8 400C319 407 300 401 281.2 396C262.3 391 243.7 387 225 388C206.3 389 187.7 395 169 393C150.3 391 131.7 381 112.8 385C94 389 75 407 56.2 413C37.3 419 18.7 413 9.3 410L0 407Z" fill="#5a5475"></path><path d="M0 457L9.3 461C18.7 465 37.3 473 56.2 471C75 469 94 457 112.8 457C131.7 457 150.3 469 169 469C187.7 469 206.3 457 225 453C243.7 449 262.3 453 281.2 458C300 463 319 469 337.8 465C356.7 461 375.3 447 394 449C412.7 451 431.3 469 450 478C468.7 487 487.3 487 506.2 489C525 491 544 495 562.8 483C581.7 471 600.3 443 619 427C637.7 411 656.3 407 675 404C693.7 401 712.3 399 731.2 407C750 415 769 433 787.8 450C806.7 467 825.3 483 844 489C862.7 495 881.3 491 890.7 489L900 487L900 443L890.7 446C881.3 449 862.7 455 844 452C825.3 449 806.7 437 787.8 422C769 407 750 389 731.2 379C712.3 369 693.7 367 675 367C656.3 367 637.7 369 619 386C600.3 403 581.7 435 562.8 449C544 463 525 459 506.2 455C487.3 451 468.7 447 450 435C431.3 423 412.7 403 394 402C375.3 401 356.7 419 337.8 424C319 429 300 421 281.2 417C262.3 413 243.7 413 225 416C206.3 419 187.7 425 169 424C150.3 423 131.7 415 112.8 419C94 423 75 439 56.2 443C37.3 447 18.7 439 9.3 435L0 431Z" fill="#4c5071"></path><path d="M0 571L9.3 573C18.7 575 37.3 579 56.2 580C75 581 94 579 112.8 579C131.7 579 150.3 581 169 580C187.7 579 206.3 575 225 573C243.7 571 262.3 571 281.2 573C300 575 319 579 337.8 581C356.7 583 375.3 583 394 582C412.7 581 431.3 579 450 578C468.7 577 487.3 577 506.2 576C525 575 544 573 562.8 574C581.7 575 600.3 579 619 579C637.7 579 656.3 575 675 573C693.7 571 712.3 571 731.2 570C750 569 769 567 787.8 569C806.7 571 825.3 577 844 577C862.7 577 881.3 571 890.7 568L900 565L900 485L890.7 487C881.3 489 862.7 493 844 487C825.3 481 806.7 465 787.8 448C769 431 750 413 731.2 405C712.3 397 693.7 399 675 402C656.3 405 637.7 409 619 425C600.3 441 581.7 469 562.8 481C544 493 525 489 506.2 487C487.3 485 468.7 485 450 476C431.3 467 412.7 449 394 447C375.3 445 356.7 459 337.8 463C319 467 300 461 281.2 456C262.3 451 243.7 447 225 451C206.3 455 187.7 467 169 467C150.3 467 131.7 455 112.8 455C94 455 75 467 56.2 469C37.3 471 18.7 463 9.3 459L0 455Z" fill="#3e4d6c"></path><path d="M0 601L9.3 601C18.7 601 37.3 601 56.2 601C75 601 94 601 112.8 601C131.7 601 150.3 601 169 601C187.7 601 206.3 601 225 601C243.7 601 262.3 601 281.2 601C300 601 319 601 337.8 601C356.7 601 375.3 601 394 601C412.7 601 431.3 601 450 601C468.7 601 487.3 601 506.2 601C525 601 544 601 562.8 601C581.7 601 600.3 601 619 601C637.7 601 656.3 601 675 601C693.7 601 712.3 601 731.2 601C750 601 769 601 787.8 601C806.7 601 825.3 601 844 601C862.7 601 881.3 601 890.7 601L900 601L900 563L890.7 566C881.3 569 862.7 575 844 575C825.3 575 806.7 569 787.8 567C769 565 750 567 731.2 568C712.3 569 693.7 569 675 571C656.3 573 637.7 577 619 577C600.3 577 581.7 573 562.8 572C544 571 525 573 506.2 574C487.3 575 468.7 575 450 576C431.3 577 412.7 579 394 580C375.3 581 356.7 581 337.8 579C319 577 300 573 281.2 571C262.3 569 243.7 569 225 571C206.3 573 187.7 577 169 578C150.3 579 131.7 577 112.8 577C94 577 75 579 56.2 578C37.3 577 18.7 573 9.3 571L0 569Z" fill="#304966"></path></svg>