<svg id="visual" viewBox="0 0 960 300" width="960" height="300" xmlns="http://www.w3.org/2000/svg" xmlns:xlink="http://www.w3.org/1999/xlink" version="1.1"><path d="M0 170L13.3 165.7C26.7 161.3 53.3 152.7 80 151.3C106.7 150 133.3 156 160 156.5C186.7 157 213.3 152 240 150.5C266.7 149 293.3 151 320 146.2C346.7 141.3 373.3 129.7 400 125.3C426.7 121 453.3 124 480 130.3C506.7 136.7 533.3 146.3 560 149.2C586.7 152 613.3 148 640 142.3C666.7 136.7 693.3 129.3 720 133.3C746.7 137.3 773.3 152.7 800 157.5C826.7 162.3 853.3 156.7 880 154.2C906.7 151.7 933.3 152.3 946.7 152.7L960 153L960 301L946.7 301C933.3 301 906.7 301 880 301C853.3 301 826.7 301 800 301C773.3 301 746.7 301 720 301C693.3 301 666.7 301 640 301C613.3 301 586.7 301 560 301C533.3 301 506.7 301 480 301C453.3 301 426.7 301 400 301C373.3 301 346.7 301 320 301C293.3 301 266.7 301 240 301C213.3 301 186.7 301 160 301C133.3 301 106.7 301 80 301C53.3 301 26.7 301 13.3 301L0 301Z" fill="#e88c7d"></path><path d="M0 186L13.3 185.3C26.7 184.7 53.3 183.3 80 178.3C106.7 173.3 133.3 164.7 160 161.2C186.7 157.7 213.3 159.3 240 157.5C266.7 155.7 293.3 150.3 320 155.2C346.7 160 373.3 175 400 179.8C426.7 184.7 453.3 179.3 480 174.7C506.7 170 533.3 166 560 162.3C586.7 158.7 613.3 155.3 640 155.8C666.7 156.3 693.3 160.7 720 164.7C746.7 168.7 773.3 172.3 800 176.2C826.7 180 853.3 184 880 182.8C906.7 181.7 933.3 175.3 946.7 172.2L960 169L960 301L946.7 301C933.3 301 906.7 301 880 301C853.3 301 826.7 301 800 301C773.3 301 746.7 301 720 301C693.3 301 666.7 301 640 301C613.3 301 586.7 301 560 301C533.3 301 506.7 301 480 301C453.3 301 426.7 301 400 301C373.3 301 346.7 301 320 301C293.3 301 266.7 301 240 301C213.3 301 186.7 301 160 301C133.3 301 106.7 301 80 301C53.3 301 26.7 301 13.3 301L0 301Z" fill="#e8877a"></path><path d="M0 212L13.3 209.7C26.7 207.3 53.3 202.7 80 202.3C106.7 202 133.3 206 160 200.5C186.7 195 213.3 180 240 173.3C266.7 166.7 293.3 168.3 320 175.5C346.7 182.7 373.3 195.3 400 195.5C426.7 195.7 453.3 183.3 480 177.5C506.7 171.7 533.3 172.3 560 176.7C586.7 181 613.3 189 640 191C666.7 193 693.3 189 720 184.8C746.7 180.7 773.3 176.3 800 180.2C826.7 184 853.3 196 880 197.2C906.7 198.3 933.3 188.7 946.7 183.8L960 179L960 301L946.7 301C933.3 301 906.7 301 880 301C853.3 301 826.7 301 800 301C773.3 301 746.7 301 720 301C693.3 301 666.7 301 640 301C613.3 301 586.7 301 560 301C533.3 301 506.7 301 480 301C453.3 301 426.7 301 400 301C373.3 301 346.7 301 320 301C293.3 301 266.7 301 240 301C213.3 301 186.7 301 160 301C133.3 301 106.7 301 80 301C53.3 301 26.7 301 13.3 301L0 301Z" fill="#e78177"></path><path d="M0 219L13.3 220.7C26.7 222.3 53.3 225.7 80 221.8C106.7 218 133.3 207 160 200.5C186.7 194 213.3 192 240 191.2C266.7 190.3 293.3 190.7 320 193.5C346.7 196.3 373.3 201.7 400 208C426.7 214.3 453.3 221.7 480 225.2C506.7 228.7 533.3 228.3 560 227C586.7 225.7 613.3 223.3 640 218.3C666.7 213.3 693.3 205.7 720 202.5C746.7 199.3 773.3 200.7 800 203C826.7 205.3 853.3 208.7 880 209.8C906.7 211 933.3 210 946.7 209.5L960 209L960 301L946.7 301C933.3 301 906.7 301 880 301C853.3 301 826.7 301 800 301C773.3 301 746.7 301 720 301C693.3 301 666.7 301 640 301C613.3 301 586.7 301 560 301C533.3 301 506.7 301 480 301C453.3 301 426.7 301 400 301C373.3 301 346.7 301 320 301C293.3 301 266.7 301 240 301C213.3 301 186.7 301 160 301C133.3 301 106.7 301 80 301C53.3 301 26.7 301 13.3 301L0 301Z" fill="#e77c75"></path><path d="M0 215L13.3 217.2C26.7 219.3 53.3 223.7 80 228.3C106.7 233 133.3 238 160 237.7C186.7 237.3 213.3 231.7 240 228.3C266.7 225 293.3 224 320 226.2C346.7 228.3 373.3 233.7 400 233.5C426.7 233.3 453.3 227.7 480 224C506.7 220.3 533.3 218.7 560 217.3C586.7 216 613.3 215 640 218.7C666.7 222.3 693.3 230.7 720 231.8C746.7 233 773.3 227 800 223.8C826.7 220.7 853.3 220.3 880 223C906.7 225.7 933.3 231.3 946.7 234.2L960 237L960 301L946.7 301C933.3 301 906.7 301 880 301C853.3 301 826.7 301 800 301C773.3 301 746.7 301 720 301C693.3 301 666.7 301 640 301C613.3 301 586.7 301 560 301C533.3 301 506.7 301 480 301C453.3 301 426.7 301 400 301C373.3 301 346.7 301 320 301C293.3 301 266.7 301 240 301C213.3 301 186.7 301 160 301C133.3 301 106.7 301 80 301C53.3 301 26.7 301 13.3 301L0 301Z" fill="#e67673"></path><path d="M0 265L13.3 265C26.7 265 53.3 265 80 264.8C106.7 264.7 133.3 264.3 160 261.3C186.7 258.3 213.3 252.7 240 249.8C266.7 247 293.3 247 320 246.7C346.7 246.3 373.3 245.7 400 248.3C426.7 251 453.3 257 480 257.2C506.7 257.3 533.3 251.7 560 250C586.7 248.3 613.3 250.7 640 254.2C666.7 257.7 693.3 262.3 720 260.5C746.7 258.7 773.3 250.3 800 248.8C826.7 247.3 853.3 252.7 880 255.3C906.7 258 933.3 258 946.7 258L960 258L960 301L946.7 301C933.3 301 906.7 301 880 301C853.3 301 826.7 301 800 301C773.3 301 746.7 301 720 301C693.3 301 666.7 301 640 301C613.3 301 586.7 301 560 301C533.3 301 506.7 301 480 301C453.3 301 426.7 301 400 301C373.3 301 346.7 301 320 301C293.3 301 266.7 301 240 301C213.3 301 186.7 301 160 301C133.3 301 106.7 301 80 301C53.3 301 26.7 301 13.3 301L0 301Z" fill="#e67171"></path><path d="M0 263L13.3 265.8C26.7 268.7 53.3 274.3 80 275C106.7 275.7 133.3 271.3 160 271.8C186.7 272.3 213.3 277.7 240 279.3C266.7 281 293.3 279 320 276.8C346.7 274.7 373.3 272.3 400 270.5C426.7 268.7 453.3 267.3 480 268.7C506.7 270 533.3 274 560 277C586.7 280 613.3 282 640 279.2C666.7 276.3 693.3 268.7 720 265.7C746.7 262.7 773.3 264.3 800 268.2C826.7 272 853.3 278 880 278.2C906.7 278.3 933.3 272.7 946.7 269.8L960 267L960 301L946.7 301C933.3 301 906.7 301 880 301C853.3 301 826.7 301 800 301C773.3 301 746.7 301 720 301C693.3 301 666.7 301 640 301C613.3 301 586.7 301 560 301C533.3 301 506.7 301 480 301C453.3 301 426.7 301 400 301C373.3 301 346.7 301 320 301C293.3 301 266.7 301 240 301C213.3 301 186.7 301 160 301C133.3 301 106.7 301 80 301C53.3 301 26.7 301 13.3 301L0 301Z" fill="#e56b6f"></path></svg>